<svg xmlns="http://www.w3.org/2000/svg"
     width="860" height="600" viewBox="0 0 860 600"
     style="background:#0d1117;border-radius:8px;">

  <defs>
    <!-- Smooth horizontal gradient across the cone -->
    <linearGradient id="cg" x1="40" y1="0" x2="808" y2="0" gradientUnits="userSpaceOnUse">
      <stop offset="0%"        stop-color="#34d399"  stop-opacity="0.92"/>
      <stop offset="37.50%"  stop-color="#34d399"  stop-opacity="0.92"/>
      <stop offset="37.50%"  stop-color="#fbbf24" stop-opacity="0.84"/>
      <stop offset="100.00%" stop-color="#fbbf24" stop-opacity="0.84"/>
      <stop offset="100.00%" stop-color="#fa984b" stop-opacity="0.76"/>
      <stop offset="100%"      stop-color="#f87171"  stop-opacity="0.60"/>
    </linearGradient>

    <!-- Glow on cone edge lines -->
    <filter id="edgeGlow" x="-10%" y="-20%" width="120%" height="140%">
      <feGaussianBlur in="SourceGraphic" stdDeviation="2" result="blur"/>
      <feMerge>
        <feMergeNode in="blur"/>
        <feMergeNode in="SourceGraphic"/>
      </feMerge>
    </filter>

    <!-- Clip to cone -->
    <clipPath id="cc"><path d="M 40,301 L 808,92 L 808,510 Z"/></clipPath>
  </defs>

  <!-- Subtle vertical grid at tick positions -->
  <line x1="116.8" y1="88" x2="116.8" y2="514"
           stroke="#ffffff" stroke-opacity="0.03" stroke-width="1"/>
  <line x1="193.6" y1="88" x2="193.6" y2="514"
           stroke="#ffffff" stroke-opacity="0.03" stroke-width="1"/>
  <line x1="270.4" y1="88" x2="270.4" y2="514"
           stroke="#ffffff" stroke-opacity="0.03" stroke-width="1"/>
  <line x1="347.2" y1="88" x2="347.2" y2="514"
           stroke="#ffffff" stroke-opacity="0.03" stroke-width="1"/>
  <line x1="424.0" y1="88" x2="424.0" y2="514"
           stroke="#ffffff" stroke-opacity="0.03" stroke-width="1"/>
  <line x1="500.8" y1="88" x2="500.8" y2="514"
           stroke="#ffffff" stroke-opacity="0.03" stroke-width="1"/>
  <line x1="577.6" y1="88" x2="577.6" y2="514"
           stroke="#ffffff" stroke-opacity="0.03" stroke-width="1"/>
  <line x1="654.4" y1="88" x2="654.4" y2="514"
           stroke="#ffffff" stroke-opacity="0.03" stroke-width="1"/>
  <line x1="731.2" y1="88" x2="731.2" y2="514"
           stroke="#ffffff" stroke-opacity="0.03" stroke-width="1"/>
  <line x1="808.0" y1="88" x2="808.0" y2="514"
           stroke="#ffffff" stroke-opacity="0.03" stroke-width="1"/>

  <!-- Cone filled with smooth gradient -->
  <path d="M 40,301 L 808,92 L 808,510 Z" fill="url(#cg)"/>

  <!-- Subtle inner glow: lighter strip along center axis -->
  <rect x="40" y="263.38" width="768" height="75.24"
        fill="#ffffff" opacity="0.04" clip-path="url(#cc)"/>

  <!-- Zone divider lines (vertical dashed) -->
  <line
    x1="328.0" y1="222.6"
    x2="328.0" y2="379.4"
    stroke="#34d399" stroke-opacity="0.55" stroke-width="1.5" stroke-dasharray="5,4"/>
  

  <!-- Cone boundary lines (dashed, with soft glow) -->
  <line x1="40" y1="301" x2="808" y2="92"
        stroke="#e0e8ff" stroke-opacity="0.30" stroke-width="1.5"
        stroke-dasharray="7,5" filter="url(#edgeGlow)"/>
  <line x1="40" y1="301" x2="808" y2="510"
        stroke="#e0e8ff" stroke-opacity="0.30" stroke-width="1.5"
        stroke-dasharray="7,5" filter="url(#edgeGlow)"/>

  <!-- Center axis (dotted) -->
  <line x1="40" y1="301" x2="818" y2="301"
        stroke="#ffffff" stroke-opacity="0.12" stroke-width="1"
        stroke-dasharray="2,8"/>

  <!-- Apex dot -->
  <circle cx="40" cy="301" r="3.5"
          fill="#e0e8ff" opacity="0.55"/>

  <!-- Spread angle arc label -->
  <text x="62" y="186.05"
        fill="#ffffff" fill-opacity="0.38"
        stroke="#000000" stroke-width="2.5" stroke-opacity="0.55" paint-order="stroke"
        font-family="'Segoe UI',Arial,sans-serif" font-size="11">
    90°
  </text>

  <!-- Tick marks (on axis line below cone) -->
  <line x1="116.8" y1="296.0" x2="116.8" y2="306.0"
            stroke="#ffffff" stroke-opacity="0.35" stroke-width="1.5"/>
  <text x="116.8" y="534.0" text-anchor="middle"
        fill="#6a7590" stroke="#000000" stroke-width="2.5" stroke-opacity="0.6" paint-order="stroke"
        font-family="'Segoe UI',Arial,sans-serif" font-size="11.5">2m</text>
  <line x1="193.6" y1="296.0" x2="193.6" y2="306.0"
            stroke="#ffffff" stroke-opacity="0.35" stroke-width="1.5"/>
  <text x="193.6" y="534.0" text-anchor="middle"
        fill="#6a7590" stroke="#000000" stroke-width="2.5" stroke-opacity="0.6" paint-order="stroke"
        font-family="'Segoe UI',Arial,sans-serif" font-size="11.5">4m</text>
  <line x1="270.4" y1="296.0" x2="270.4" y2="306.0"
            stroke="#ffffff" stroke-opacity="0.35" stroke-width="1.5"/>
  <text x="270.4" y="534.0" text-anchor="middle"
        fill="#6a7590" stroke="#000000" stroke-width="2.5" stroke-opacity="0.6" paint-order="stroke"
        font-family="'Segoe UI',Arial,sans-serif" font-size="11.5">6m</text>
  <line x1="347.2" y1="296.0" x2="347.2" y2="306.0"
            stroke="#ffffff" stroke-opacity="0.35" stroke-width="1.5"/>
  <text x="347.2" y="534.0" text-anchor="middle"
        fill="#6a7590" stroke="#000000" stroke-width="2.5" stroke-opacity="0.6" paint-order="stroke"
        font-family="'Segoe UI',Arial,sans-serif" font-size="11.5">8m</text>
  <line x1="424.0" y1="296.0" x2="424.0" y2="306.0"
            stroke="#ffffff" stroke-opacity="0.35" stroke-width="1.5"/>
  <text x="424.0" y="534.0" text-anchor="middle"
        fill="#6a7590" stroke="#000000" stroke-width="2.5" stroke-opacity="0.6" paint-order="stroke"
        font-family="'Segoe UI',Arial,sans-serif" font-size="11.5">10m</text>
  <line x1="500.8" y1="296.0" x2="500.8" y2="306.0"
            stroke="#ffffff" stroke-opacity="0.35" stroke-width="1.5"/>
  <text x="500.8" y="534.0" text-anchor="middle"
        fill="#6a7590" stroke="#000000" stroke-width="2.5" stroke-opacity="0.6" paint-order="stroke"
        font-family="'Segoe UI',Arial,sans-serif" font-size="11.5">12m</text>
  <line x1="577.6" y1="296.0" x2="577.6" y2="306.0"
            stroke="#ffffff" stroke-opacity="0.35" stroke-width="1.5"/>
  <text x="577.6" y="534.0" text-anchor="middle"
        fill="#6a7590" stroke="#000000" stroke-width="2.5" stroke-opacity="0.6" paint-order="stroke"
        font-family="'Segoe UI',Arial,sans-serif" font-size="11.5">14m</text>
  <line x1="654.4" y1="296.0" x2="654.4" y2="306.0"
            stroke="#ffffff" stroke-opacity="0.35" stroke-width="1.5"/>
  <text x="654.4" y="534.0" text-anchor="middle"
        fill="#6a7590" stroke="#000000" stroke-width="2.5" stroke-opacity="0.6" paint-order="stroke"
        font-family="'Segoe UI',Arial,sans-serif" font-size="11.5">16m</text>
  <line x1="731.2" y1="296.0" x2="731.2" y2="306.0"
            stroke="#ffffff" stroke-opacity="0.35" stroke-width="1.5"/>
  <text x="731.2" y="534.0" text-anchor="middle"
        fill="#6a7590" stroke="#000000" stroke-width="2.5" stroke-opacity="0.6" paint-order="stroke"
        font-family="'Segoe UI',Arial,sans-serif" font-size="11.5">18m</text>
  <line x1="808.0" y1="296.0" x2="808.0" y2="306.0"
            stroke="#ffffff" stroke-opacity="0.35" stroke-width="1.5"/>
  <text x="808.0" y="534.0" text-anchor="middle"
        fill="#6a7590" stroke="#000000" stroke-width="2.5" stroke-opacity="0.6" paint-order="stroke"
        font-family="'Segoe UI',Arial,sans-serif" font-size="11.5">20m</text>

  <!-- Axis baseline -->
  <line x1="40" y1="522" x2="808" y2="522"
        stroke="#2c3040" stroke-width="1"/>

  <!-- Right-side vertical width scale -->
  <line x1="814.0" y1="301.0" x2="822.0" y2="301.0" stroke="#ffffff" stroke-opacity="0.25" stroke-width="1"/>
  <text x="825.0" y="301.0" dominant-baseline="middle" fill="#6a7590" stroke="#000000" stroke-width="2.5" stroke-opacity="0.6" paint-order="stroke" font-family="'Segoe UI',Arial,sans-serif" font-size="10">0m</text>
  <line x1="814.0" y1="248.8" x2="822.0" y2="248.8" stroke="#ffffff" stroke-opacity="0.25" stroke-width="1"/>
  <text x="825.0" y="248.8" dominant-baseline="middle" fill="#6a7590" stroke="#000000" stroke-width="2.5" stroke-opacity="0.6" paint-order="stroke" font-family="'Segoe UI',Arial,sans-serif" font-size="10">5m</text>
  <line x1="814.0" y1="353.3" x2="822.0" y2="353.3" stroke="#ffffff" stroke-opacity="0.25" stroke-width="1"/>
  <text x="825.0" y="353.3" dominant-baseline="middle" fill="#6a7590" stroke="#000000" stroke-width="2.5" stroke-opacity="0.6" paint-order="stroke" font-family="'Segoe UI',Arial,sans-serif" font-size="10">-5m</text>
  <line x1="814.0" y1="196.5" x2="822.0" y2="196.5" stroke="#ffffff" stroke-opacity="0.25" stroke-width="1"/>
  <text x="825.0" y="196.5" dominant-baseline="middle" fill="#6a7590" stroke="#000000" stroke-width="2.5" stroke-opacity="0.6" paint-order="stroke" font-family="'Segoe UI',Arial,sans-serif" font-size="10">10m</text>
  <line x1="814.0" y1="405.5" x2="822.0" y2="405.5" stroke="#ffffff" stroke-opacity="0.25" stroke-width="1"/>
  <text x="825.0" y="405.5" dominant-baseline="middle" fill="#6a7590" stroke="#000000" stroke-width="2.5" stroke-opacity="0.6" paint-order="stroke" font-family="'Segoe UI',Arial,sans-serif" font-size="10">-10m</text>
  <line x1="814.0" y1="144.2" x2="822.0" y2="144.2" stroke="#ffffff" stroke-opacity="0.25" stroke-width="1"/>
  <text x="825.0" y="144.2" dominant-baseline="middle" fill="#6a7590" stroke="#000000" stroke-width="2.5" stroke-opacity="0.6" paint-order="stroke" font-family="'Segoe UI',Arial,sans-serif" font-size="10">15m</text>
  <line x1="814.0" y1="457.8" x2="822.0" y2="457.8" stroke="#ffffff" stroke-opacity="0.25" stroke-width="1"/>
  <text x="825.0" y="457.8" dominant-baseline="middle" fill="#6a7590" stroke="#000000" stroke-width="2.5" stroke-opacity="0.6" paint-order="stroke" font-family="'Segoe UI',Arial,sans-serif" font-size="10">-15m</text>
  <line x1="814.0" y1="92.0" x2="822.0" y2="92.0" stroke="#ffffff" stroke-opacity="0.25" stroke-width="1"/>
  <text x="825.0" y="92.0" dominant-baseline="middle" fill="#6a7590" stroke="#000000" stroke-width="2.5" stroke-opacity="0.6" paint-order="stroke" font-family="'Segoe UI',Arial,sans-serif" font-size="10">20m</text>
  <line x1="814.0" y1="510.0" x2="822.0" y2="510.0" stroke="#ffffff" stroke-opacity="0.25" stroke-width="1"/>
  <text x="825.0" y="510.0" dominant-baseline="middle" fill="#6a7590" stroke="#000000" stroke-width="2.5" stroke-opacity="0.6" paint-order="stroke" font-family="'Segoe UI',Arial,sans-serif" font-size="10">-20m</text>
  <line x1="818.0" y1="92.0" x2="818.0" y2="510.0" stroke="#ffffff" stroke-opacity="0.10" stroke-width="1"/>

  <!-- Detection zone polygon overlays -->
  <polygon points="40.0,301.0 96.8,285.5 808.0,285.5 808.0,316.7 96.8,316.5"
      fill="#4000ff" fill-opacity="0.18"
      stroke="#4000ff" stroke-opacity="0.80" stroke-width="1.5"
      stroke-dasharray="6,3"
      clip-path="url(#cc)"/>
  <line x1="782.0" y1="285.5" x2="794.0" y2="285.5"
        stroke="#e4dbff" stroke-width="1.2" stroke-opacity="0.80"/>
  <line x1="788.0" y1="285.5" x2="788.0" y2="316.7"
        stroke="#e4dbff" stroke-width="1.2" stroke-opacity="0.80"/>
  <line x1="782.0" y1="316.7" x2="794.0" y2="316.7"
        stroke="#e4dbff" stroke-width="1.2" stroke-opacity="0.80"/>
  <text x="798.0" y="301.1"
          dominant-baseline="middle"
          fill="#e4dbff" fill-opacity="0.92"
          stroke="#000000" stroke-width="2.5" stroke-opacity="0.55" paint-order="stroke"
          font-family="'Segoe UI',Arial,sans-serif" font-size="10" font-weight="700"
          >3.0m</text>
  
  <defs>
  <mask id="hmask-2" maskUnits="userSpaceOnUse">
    <rect x="0" y="0" width="860" height="600" fill="black"/>
    <polygon points="96.8,316.5 808.0,316.7 808.0,510.0" fill="white" clip-path="url(#cc)"/>
  </mask>
</defs>
<g mask="url(#hmask-2)">
  <line x1="-108.7" y1="312.5" x2="92.8" y2="514.0" stroke="#ff0000" stroke-width="2.5" stroke-opacity="0.6"/>
  <line x1="-98.7" y1="312.5" x2="102.8" y2="514.0" stroke="#ff0000" stroke-width="2.5" stroke-opacity="0.6"/>
  <line x1="-88.7" y1="312.5" x2="112.8" y2="514.0" stroke="#ff0000" stroke-width="2.5" stroke-opacity="0.6"/>
  <line x1="-78.7" y1="312.5" x2="122.8" y2="514.0" stroke="#ff0000" stroke-width="2.5" stroke-opacity="0.6"/>
  <line x1="-68.7" y1="312.5" x2="132.8" y2="514.0" stroke="#ff0000" stroke-width="2.5" stroke-opacity="0.6"/>
  <line x1="-58.7" y1="312.5" x2="142.8" y2="514.0" stroke="#ff0000" stroke-width="2.5" stroke-opacity="0.6"/>
  <line x1="-48.7" y1="312.5" x2="152.8" y2="514.0" stroke="#ff0000" stroke-width="2.5" stroke-opacity="0.6"/>
  <line x1="-38.7" y1="312.5" x2="162.8" y2="514.0" stroke="#ff0000" stroke-width="2.5" stroke-opacity="0.6"/>
  <line x1="-28.7" y1="312.5" x2="172.8" y2="514.0" stroke="#ff0000" stroke-width="2.5" stroke-opacity="0.6"/>
  <line x1="-18.7" y1="312.5" x2="182.8" y2="514.0" stroke="#ff0000" stroke-width="2.5" stroke-opacity="0.6"/>
  <line x1="-8.7" y1="312.5" x2="192.8" y2="514.0" stroke="#ff0000" stroke-width="2.5" stroke-opacity="0.6"/>
  <line x1="1.3" y1="312.5" x2="202.8" y2="514.0" stroke="#ff0000" stroke-width="2.5" stroke-opacity="0.6"/>
  <line x1="11.3" y1="312.5" x2="212.8" y2="514.0" stroke="#ff0000" stroke-width="2.5" stroke-opacity="0.6"/>
  <line x1="21.3" y1="312.5" x2="222.8" y2="514.0" stroke="#ff0000" stroke-width="2.5" stroke-opacity="0.6"/>
  <line x1="31.3" y1="312.5" x2="232.8" y2="514.0" stroke="#ff0000" stroke-width="2.5" stroke-opacity="0.6"/>
  <line x1="41.3" y1="312.5" x2="242.8" y2="514.0" stroke="#ff0000" stroke-width="2.5" stroke-opacity="0.6"/>
  <line x1="51.3" y1="312.5" x2="252.8" y2="514.0" stroke="#ff0000" stroke-width="2.5" stroke-opacity="0.6"/>
  <line x1="61.3" y1="312.5" x2="262.8" y2="514.0" stroke="#ff0000" stroke-width="2.5" stroke-opacity="0.6"/>
  <line x1="71.3" y1="312.5" x2="272.8" y2="514.0" stroke="#ff0000" stroke-width="2.5" stroke-opacity="0.6"/>
  <line x1="81.3" y1="312.5" x2="282.8" y2="514.0" stroke="#ff0000" stroke-width="2.5" stroke-opacity="0.6"/>
  <line x1="91.3" y1="312.5" x2="292.8" y2="514.0" stroke="#ff0000" stroke-width="2.5" stroke-opacity="0.6"/>
  <line x1="101.3" y1="312.5" x2="302.8" y2="514.0" stroke="#ff0000" stroke-width="2.5" stroke-opacity="0.6"/>
  <line x1="111.3" y1="312.5" x2="312.8" y2="514.0" stroke="#ff0000" stroke-width="2.5" stroke-opacity="0.6"/>
  <line x1="121.3" y1="312.5" x2="322.8" y2="514.0" stroke="#ff0000" stroke-width="2.5" stroke-opacity="0.6"/>
  <line x1="131.3" y1="312.5" x2="332.8" y2="514.0" stroke="#ff0000" stroke-width="2.5" stroke-opacity="0.6"/>
  <line x1="141.3" y1="312.5" x2="342.8" y2="514.0" stroke="#ff0000" stroke-width="2.5" stroke-opacity="0.6"/>
  <line x1="151.3" y1="312.5" x2="352.8" y2="514.0" stroke="#ff0000" stroke-width="2.5" stroke-opacity="0.6"/>
  <line x1="161.3" y1="312.5" x2="362.8" y2="514.0" stroke="#ff0000" stroke-width="2.5" stroke-opacity="0.6"/>
  <line x1="171.3" y1="312.5" x2="372.8" y2="514.0" stroke="#ff0000" stroke-width="2.5" stroke-opacity="0.6"/>
  <line x1="181.3" y1="312.5" x2="382.8" y2="514.0" stroke="#ff0000" stroke-width="2.5" stroke-opacity="0.6"/>
  <line x1="191.3" y1="312.5" x2="392.8" y2="514.0" stroke="#ff0000" stroke-width="2.5" stroke-opacity="0.6"/>
  <line x1="201.3" y1="312.5" x2="402.8" y2="514.0" stroke="#ff0000" stroke-width="2.5" stroke-opacity="0.6"/>
  <line x1="211.3" y1="312.5" x2="412.8" y2="514.0" stroke="#ff0000" stroke-width="2.5" stroke-opacity="0.6"/>
  <line x1="221.3" y1="312.5" x2="422.8" y2="514.0" stroke="#ff0000" stroke-width="2.5" stroke-opacity="0.6"/>
  <line x1="231.3" y1="312.5" x2="432.8" y2="514.0" stroke="#ff0000" stroke-width="2.5" stroke-opacity="0.6"/>
  <line x1="241.3" y1="312.5" x2="442.8" y2="514.0" stroke="#ff0000" stroke-width="2.5" stroke-opacity="0.6"/>
  <line x1="251.3" y1="312.5" x2="452.8" y2="514.0" stroke="#ff0000" stroke-width="2.5" stroke-opacity="0.6"/>
  <line x1="261.3" y1="312.5" x2="462.8" y2="514.0" stroke="#ff0000" stroke-width="2.5" stroke-opacity="0.6"/>
  <line x1="271.3" y1="312.5" x2="472.8" y2="514.0" stroke="#ff0000" stroke-width="2.5" stroke-opacity="0.6"/>
  <line x1="281.3" y1="312.5" x2="482.8" y2="514.0" stroke="#ff0000" stroke-width="2.5" stroke-opacity="0.6"/>
  <line x1="291.3" y1="312.5" x2="492.8" y2="514.0" stroke="#ff0000" stroke-width="2.5" stroke-opacity="0.6"/>
  <line x1="301.3" y1="312.5" x2="502.8" y2="514.0" stroke="#ff0000" stroke-width="2.5" stroke-opacity="0.6"/>
  <line x1="311.3" y1="312.5" x2="512.8" y2="514.0" stroke="#ff0000" stroke-width="2.5" stroke-opacity="0.6"/>
  <line x1="321.3" y1="312.5" x2="522.8" y2="514.0" stroke="#ff0000" stroke-width="2.5" stroke-opacity="0.6"/>
  <line x1="331.3" y1="312.5" x2="532.8" y2="514.0" stroke="#ff0000" stroke-width="2.5" stroke-opacity="0.6"/>
  <line x1="341.3" y1="312.5" x2="542.8" y2="514.0" stroke="#ff0000" stroke-width="2.5" stroke-opacity="0.6"/>
  <line x1="351.3" y1="312.5" x2="552.8" y2="514.0" stroke="#ff0000" stroke-width="2.5" stroke-opacity="0.6"/>
  <line x1="361.3" y1="312.5" x2="562.8" y2="514.0" stroke="#ff0000" stroke-width="2.5" stroke-opacity="0.6"/>
  <line x1="371.3" y1="312.5" x2="572.8" y2="514.0" stroke="#ff0000" stroke-width="2.5" stroke-opacity="0.6"/>
  <line x1="381.3" y1="312.5" x2="582.8" y2="514.0" stroke="#ff0000" stroke-width="2.5" stroke-opacity="0.6"/>
  <line x1="391.3" y1="312.5" x2="592.8" y2="514.0" stroke="#ff0000" stroke-width="2.5" stroke-opacity="0.6"/>
  <line x1="401.3" y1="312.5" x2="602.8" y2="514.0" stroke="#ff0000" stroke-width="2.5" stroke-opacity="0.6"/>
  <line x1="411.3" y1="312.5" x2="612.8" y2="514.0" stroke="#ff0000" stroke-width="2.5" stroke-opacity="0.6"/>
  <line x1="421.3" y1="312.5" x2="622.8" y2="514.0" stroke="#ff0000" stroke-width="2.5" stroke-opacity="0.6"/>
  <line x1="431.3" y1="312.5" x2="632.8" y2="514.0" stroke="#ff0000" stroke-width="2.5" stroke-opacity="0.6"/>
  <line x1="441.3" y1="312.5" x2="642.8" y2="514.0" stroke="#ff0000" stroke-width="2.5" stroke-opacity="0.6"/>
  <line x1="451.3" y1="312.5" x2="652.8" y2="514.0" stroke="#ff0000" stroke-width="2.5" stroke-opacity="0.6"/>
  <line x1="461.3" y1="312.5" x2="662.8" y2="514.0" stroke="#ff0000" stroke-width="2.5" stroke-opacity="0.6"/>
  <line x1="471.3" y1="312.5" x2="672.8" y2="514.0" stroke="#ff0000" stroke-width="2.5" stroke-opacity="0.6"/>
  <line x1="481.3" y1="312.5" x2="682.8" y2="514.0" stroke="#ff0000" stroke-width="2.5" stroke-opacity="0.6"/>
  <line x1="491.3" y1="312.5" x2="692.8" y2="514.0" stroke="#ff0000" stroke-width="2.5" stroke-opacity="0.6"/>
  <line x1="501.3" y1="312.5" x2="702.8" y2="514.0" stroke="#ff0000" stroke-width="2.5" stroke-opacity="0.6"/>
  <line x1="511.3" y1="312.5" x2="712.8" y2="514.0" stroke="#ff0000" stroke-width="2.5" stroke-opacity="0.6"/>
  <line x1="521.3" y1="312.5" x2="722.8" y2="514.0" stroke="#ff0000" stroke-width="2.5" stroke-opacity="0.6"/>
  <line x1="531.3" y1="312.5" x2="732.8" y2="514.0" stroke="#ff0000" stroke-width="2.5" stroke-opacity="0.6"/>
  <line x1="541.3" y1="312.5" x2="742.8" y2="514.0" stroke="#ff0000" stroke-width="2.5" stroke-opacity="0.6"/>
  <line x1="551.3" y1="312.5" x2="752.8" y2="514.0" stroke="#ff0000" stroke-width="2.5" stroke-opacity="0.6"/>
  <line x1="561.3" y1="312.5" x2="762.8" y2="514.0" stroke="#ff0000" stroke-width="2.5" stroke-opacity="0.6"/>
  <line x1="571.3" y1="312.5" x2="772.8" y2="514.0" stroke="#ff0000" stroke-width="2.5" stroke-opacity="0.6"/>
  <line x1="581.3" y1="312.5" x2="782.8" y2="514.0" stroke="#ff0000" stroke-width="2.5" stroke-opacity="0.6"/>
  <line x1="591.3" y1="312.5" x2="792.8" y2="514.0" stroke="#ff0000" stroke-width="2.5" stroke-opacity="0.6"/>
  <line x1="601.3" y1="312.5" x2="802.8" y2="514.0" stroke="#ff0000" stroke-width="2.5" stroke-opacity="0.6"/>
  <line x1="611.3" y1="312.5" x2="812.8" y2="514.0" stroke="#ff0000" stroke-width="2.5" stroke-opacity="0.6"/>
  <line x1="621.3" y1="312.5" x2="822.8" y2="514.0" stroke="#ff0000" stroke-width="2.5" stroke-opacity="0.6"/>
  <line x1="631.3" y1="312.5" x2="832.8" y2="514.0" stroke="#ff0000" stroke-width="2.5" stroke-opacity="0.6"/>
  <line x1="641.3" y1="312.5" x2="842.8" y2="514.0" stroke="#ff0000" stroke-width="2.5" stroke-opacity="0.6"/>
  <line x1="651.3" y1="312.5" x2="852.8" y2="514.0" stroke="#ff0000" stroke-width="2.5" stroke-opacity="0.6"/>
  <line x1="661.3" y1="312.5" x2="862.8" y2="514.0" stroke="#ff0000" stroke-width="2.5" stroke-opacity="0.6"/>
  <line x1="671.3" y1="312.5" x2="872.8" y2="514.0" stroke="#ff0000" stroke-width="2.5" stroke-opacity="0.6"/>
  <line x1="681.3" y1="312.5" x2="882.8" y2="514.0" stroke="#ff0000" stroke-width="2.5" stroke-opacity="0.6"/>
  <line x1="691.3" y1="312.5" x2="892.8" y2="514.0" stroke="#ff0000" stroke-width="2.5" stroke-opacity="0.6"/>
  <line x1="701.3" y1="312.5" x2="902.8" y2="514.0" stroke="#ff0000" stroke-width="2.5" stroke-opacity="0.6"/>
  <line x1="711.3" y1="312.5" x2="912.8" y2="514.0" stroke="#ff0000" stroke-width="2.5" stroke-opacity="0.6"/>
  <line x1="721.3" y1="312.5" x2="922.8" y2="514.0" stroke="#ff0000" stroke-width="2.5" stroke-opacity="0.6"/>
  <line x1="731.3" y1="312.5" x2="932.8" y2="514.0" stroke="#ff0000" stroke-width="2.5" stroke-opacity="0.6"/>
  <line x1="741.3" y1="312.5" x2="942.8" y2="514.0" stroke="#ff0000" stroke-width="2.5" stroke-opacity="0.6"/>
  <line x1="751.3" y1="312.5" x2="952.8" y2="514.0" stroke="#ff0000" stroke-width="2.5" stroke-opacity="0.6"/>
  <line x1="761.3" y1="312.5" x2="962.8" y2="514.0" stroke="#ff0000" stroke-width="2.5" stroke-opacity="0.6"/>
  <line x1="771.3" y1="312.5" x2="972.8" y2="514.0" stroke="#ff0000" stroke-width="2.5" stroke-opacity="0.6"/>
  <line x1="781.3" y1="312.5" x2="982.8" y2="514.0" stroke="#ff0000" stroke-width="2.5" stroke-opacity="0.6"/>
  <line x1="791.3" y1="312.5" x2="992.8" y2="514.0" stroke="#ff0000" stroke-width="2.5" stroke-opacity="0.6"/>
  <line x1="801.3" y1="312.5" x2="1002.8" y2="514.0" stroke="#ff0000" stroke-width="2.5" stroke-opacity="0.6"/>
  <line x1="811.3" y1="312.5" x2="1012.8" y2="514.0" stroke="#ff0000" stroke-width="2.5" stroke-opacity="0.6"/>
  <line x1="821.3" y1="312.5" x2="1022.8" y2="514.0" stroke="#ff0000" stroke-width="2.5" stroke-opacity="0.6"/>
</g><polygon points="96.8,316.5 808.0,316.7 808.0,510.0"
      fill="none" fill-opacity="0"
      stroke="#ff0000" stroke-opacity="0.80" stroke-width="1.5"
      stroke-dasharray="6,3"
      clip-path="url(#cc)"/>
  <defs>
  <mask id="hmask-3" maskUnits="userSpaceOnUse">
    <rect x="0" y="0" width="860" height="600" fill="black"/>
    <polygon points="808.0,92.0 808.0,285.1 98.0,285.2" fill="white" clip-path="url(#cc)"/>
  </mask>
</defs>
<g mask="url(#hmask-3)">
  <line x1="-107.2" y1="88.0" x2="94.0" y2="289.2" stroke="#ff0000" stroke-width="2.5" stroke-opacity="0.6"/>
  <line x1="-97.2" y1="88.0" x2="104.0" y2="289.2" stroke="#ff0000" stroke-width="2.5" stroke-opacity="0.6"/>
  <line x1="-87.2" y1="88.0" x2="114.0" y2="289.2" stroke="#ff0000" stroke-width="2.5" stroke-opacity="0.6"/>
  <line x1="-77.2" y1="88.0" x2="124.0" y2="289.2" stroke="#ff0000" stroke-width="2.5" stroke-opacity="0.6"/>
  <line x1="-67.2" y1="88.0" x2="134.0" y2="289.2" stroke="#ff0000" stroke-width="2.5" stroke-opacity="0.6"/>
  <line x1="-57.2" y1="88.0" x2="144.0" y2="289.2" stroke="#ff0000" stroke-width="2.5" stroke-opacity="0.6"/>
  <line x1="-47.2" y1="88.0" x2="154.0" y2="289.2" stroke="#ff0000" stroke-width="2.5" stroke-opacity="0.6"/>
  <line x1="-37.2" y1="88.0" x2="164.0" y2="289.2" stroke="#ff0000" stroke-width="2.5" stroke-opacity="0.6"/>
  <line x1="-27.2" y1="88.0" x2="174.0" y2="289.2" stroke="#ff0000" stroke-width="2.5" stroke-opacity="0.6"/>
  <line x1="-17.2" y1="88.0" x2="184.0" y2="289.2" stroke="#ff0000" stroke-width="2.5" stroke-opacity="0.6"/>
  <line x1="-7.2" y1="88.0" x2="194.0" y2="289.2" stroke="#ff0000" stroke-width="2.5" stroke-opacity="0.6"/>
  <line x1="2.8" y1="88.0" x2="204.0" y2="289.2" stroke="#ff0000" stroke-width="2.5" stroke-opacity="0.6"/>
  <line x1="12.8" y1="88.0" x2="214.0" y2="289.2" stroke="#ff0000" stroke-width="2.5" stroke-opacity="0.6"/>
  <line x1="22.8" y1="88.0" x2="224.0" y2="289.2" stroke="#ff0000" stroke-width="2.5" stroke-opacity="0.6"/>
  <line x1="32.8" y1="88.0" x2="234.0" y2="289.2" stroke="#ff0000" stroke-width="2.5" stroke-opacity="0.6"/>
  <line x1="42.8" y1="88.0" x2="244.0" y2="289.2" stroke="#ff0000" stroke-width="2.5" stroke-opacity="0.6"/>
  <line x1="52.8" y1="88.0" x2="254.0" y2="289.2" stroke="#ff0000" stroke-width="2.5" stroke-opacity="0.6"/>
  <line x1="62.8" y1="88.0" x2="264.0" y2="289.2" stroke="#ff0000" stroke-width="2.5" stroke-opacity="0.6"/>
  <line x1="72.8" y1="88.0" x2="274.0" y2="289.2" stroke="#ff0000" stroke-width="2.5" stroke-opacity="0.6"/>
  <line x1="82.8" y1="88.0" x2="284.0" y2="289.2" stroke="#ff0000" stroke-width="2.5" stroke-opacity="0.6"/>
  <line x1="92.8" y1="88.0" x2="294.0" y2="289.2" stroke="#ff0000" stroke-width="2.5" stroke-opacity="0.6"/>
  <line x1="102.8" y1="88.0" x2="304.0" y2="289.2" stroke="#ff0000" stroke-width="2.5" stroke-opacity="0.6"/>
  <line x1="112.8" y1="88.0" x2="314.0" y2="289.2" stroke="#ff0000" stroke-width="2.5" stroke-opacity="0.6"/>
  <line x1="122.8" y1="88.0" x2="324.0" y2="289.2" stroke="#ff0000" stroke-width="2.5" stroke-opacity="0.6"/>
  <line x1="132.8" y1="88.0" x2="334.0" y2="289.2" stroke="#ff0000" stroke-width="2.5" stroke-opacity="0.6"/>
  <line x1="142.8" y1="88.0" x2="344.0" y2="289.2" stroke="#ff0000" stroke-width="2.5" stroke-opacity="0.6"/>
  <line x1="152.8" y1="88.0" x2="354.0" y2="289.2" stroke="#ff0000" stroke-width="2.5" stroke-opacity="0.6"/>
  <line x1="162.8" y1="88.0" x2="364.0" y2="289.2" stroke="#ff0000" stroke-width="2.5" stroke-opacity="0.6"/>
  <line x1="172.8" y1="88.0" x2="374.0" y2="289.2" stroke="#ff0000" stroke-width="2.5" stroke-opacity="0.6"/>
  <line x1="182.8" y1="88.0" x2="384.0" y2="289.2" stroke="#ff0000" stroke-width="2.5" stroke-opacity="0.6"/>
  <line x1="192.8" y1="88.0" x2="394.0" y2="289.2" stroke="#ff0000" stroke-width="2.5" stroke-opacity="0.6"/>
  <line x1="202.8" y1="88.0" x2="404.0" y2="289.2" stroke="#ff0000" stroke-width="2.5" stroke-opacity="0.6"/>
  <line x1="212.8" y1="88.0" x2="414.0" y2="289.2" stroke="#ff0000" stroke-width="2.5" stroke-opacity="0.6"/>
  <line x1="222.8" y1="88.0" x2="424.0" y2="289.2" stroke="#ff0000" stroke-width="2.5" stroke-opacity="0.6"/>
  <line x1="232.8" y1="88.0" x2="434.0" y2="289.2" stroke="#ff0000" stroke-width="2.5" stroke-opacity="0.6"/>
  <line x1="242.8" y1="88.0" x2="444.0" y2="289.2" stroke="#ff0000" stroke-width="2.5" stroke-opacity="0.6"/>
  <line x1="252.8" y1="88.0" x2="454.0" y2="289.2" stroke="#ff0000" stroke-width="2.5" stroke-opacity="0.6"/>
  <line x1="262.8" y1="88.0" x2="464.0" y2="289.2" stroke="#ff0000" stroke-width="2.5" stroke-opacity="0.6"/>
  <line x1="272.8" y1="88.0" x2="474.0" y2="289.2" stroke="#ff0000" stroke-width="2.5" stroke-opacity="0.6"/>
  <line x1="282.8" y1="88.0" x2="484.0" y2="289.2" stroke="#ff0000" stroke-width="2.5" stroke-opacity="0.6"/>
  <line x1="292.8" y1="88.0" x2="494.0" y2="289.2" stroke="#ff0000" stroke-width="2.5" stroke-opacity="0.6"/>
  <line x1="302.8" y1="88.0" x2="504.0" y2="289.2" stroke="#ff0000" stroke-width="2.5" stroke-opacity="0.6"/>
  <line x1="312.8" y1="88.0" x2="514.0" y2="289.2" stroke="#ff0000" stroke-width="2.5" stroke-opacity="0.6"/>
  <line x1="322.8" y1="88.0" x2="524.0" y2="289.2" stroke="#ff0000" stroke-width="2.5" stroke-opacity="0.6"/>
  <line x1="332.8" y1="88.0" x2="534.0" y2="289.2" stroke="#ff0000" stroke-width="2.5" stroke-opacity="0.6"/>
  <line x1="342.8" y1="88.0" x2="544.0" y2="289.2" stroke="#ff0000" stroke-width="2.5" stroke-opacity="0.6"/>
  <line x1="352.8" y1="88.0" x2="554.0" y2="289.2" stroke="#ff0000" stroke-width="2.5" stroke-opacity="0.6"/>
  <line x1="362.8" y1="88.0" x2="564.0" y2="289.2" stroke="#ff0000" stroke-width="2.5" stroke-opacity="0.6"/>
  <line x1="372.8" y1="88.0" x2="574.0" y2="289.2" stroke="#ff0000" stroke-width="2.5" stroke-opacity="0.6"/>
  <line x1="382.8" y1="88.0" x2="584.0" y2="289.2" stroke="#ff0000" stroke-width="2.5" stroke-opacity="0.6"/>
  <line x1="392.8" y1="88.0" x2="594.0" y2="289.2" stroke="#ff0000" stroke-width="2.5" stroke-opacity="0.6"/>
  <line x1="402.8" y1="88.0" x2="604.0" y2="289.2" stroke="#ff0000" stroke-width="2.5" stroke-opacity="0.6"/>
  <line x1="412.8" y1="88.0" x2="614.0" y2="289.2" stroke="#ff0000" stroke-width="2.5" stroke-opacity="0.6"/>
  <line x1="422.8" y1="88.0" x2="624.0" y2="289.2" stroke="#ff0000" stroke-width="2.5" stroke-opacity="0.6"/>
  <line x1="432.8" y1="88.0" x2="634.0" y2="289.2" stroke="#ff0000" stroke-width="2.5" stroke-opacity="0.6"/>
  <line x1="442.8" y1="88.0" x2="644.0" y2="289.2" stroke="#ff0000" stroke-width="2.5" stroke-opacity="0.6"/>
  <line x1="452.8" y1="88.0" x2="654.0" y2="289.2" stroke="#ff0000" stroke-width="2.5" stroke-opacity="0.6"/>
  <line x1="462.8" y1="88.0" x2="664.0" y2="289.2" stroke="#ff0000" stroke-width="2.5" stroke-opacity="0.6"/>
  <line x1="472.8" y1="88.0" x2="674.0" y2="289.2" stroke="#ff0000" stroke-width="2.5" stroke-opacity="0.6"/>
  <line x1="482.8" y1="88.0" x2="684.0" y2="289.2" stroke="#ff0000" stroke-width="2.5" stroke-opacity="0.6"/>
  <line x1="492.8" y1="88.0" x2="694.0" y2="289.2" stroke="#ff0000" stroke-width="2.5" stroke-opacity="0.6"/>
  <line x1="502.8" y1="88.0" x2="704.0" y2="289.2" stroke="#ff0000" stroke-width="2.5" stroke-opacity="0.6"/>
  <line x1="512.8" y1="88.0" x2="714.0" y2="289.2" stroke="#ff0000" stroke-width="2.5" stroke-opacity="0.6"/>
  <line x1="522.8" y1="88.0" x2="724.0" y2="289.2" stroke="#ff0000" stroke-width="2.5" stroke-opacity="0.6"/>
  <line x1="532.8" y1="88.0" x2="734.0" y2="289.2" stroke="#ff0000" stroke-width="2.5" stroke-opacity="0.6"/>
  <line x1="542.8" y1="88.0" x2="744.0" y2="289.2" stroke="#ff0000" stroke-width="2.5" stroke-opacity="0.6"/>
  <line x1="552.8" y1="88.0" x2="754.0" y2="289.2" stroke="#ff0000" stroke-width="2.5" stroke-opacity="0.6"/>
  <line x1="562.8" y1="88.0" x2="764.0" y2="289.2" stroke="#ff0000" stroke-width="2.5" stroke-opacity="0.6"/>
  <line x1="572.8" y1="88.0" x2="774.0" y2="289.2" stroke="#ff0000" stroke-width="2.5" stroke-opacity="0.6"/>
  <line x1="582.8" y1="88.0" x2="784.0" y2="289.2" stroke="#ff0000" stroke-width="2.5" stroke-opacity="0.6"/>
  <line x1="592.8" y1="88.0" x2="794.0" y2="289.2" stroke="#ff0000" stroke-width="2.5" stroke-opacity="0.6"/>
  <line x1="602.8" y1="88.0" x2="804.0" y2="289.2" stroke="#ff0000" stroke-width="2.5" stroke-opacity="0.6"/>
  <line x1="612.8" y1="88.0" x2="814.0" y2="289.2" stroke="#ff0000" stroke-width="2.5" stroke-opacity="0.6"/>
  <line x1="622.8" y1="88.0" x2="824.0" y2="289.2" stroke="#ff0000" stroke-width="2.5" stroke-opacity="0.6"/>
  <line x1="632.8" y1="88.0" x2="834.0" y2="289.2" stroke="#ff0000" stroke-width="2.5" stroke-opacity="0.6"/>
  <line x1="642.8" y1="88.0" x2="844.0" y2="289.2" stroke="#ff0000" stroke-width="2.5" stroke-opacity="0.6"/>
  <line x1="652.8" y1="88.0" x2="854.0" y2="289.2" stroke="#ff0000" stroke-width="2.5" stroke-opacity="0.6"/>
  <line x1="662.8" y1="88.0" x2="864.0" y2="289.2" stroke="#ff0000" stroke-width="2.5" stroke-opacity="0.6"/>
  <line x1="672.8" y1="88.0" x2="874.0" y2="289.2" stroke="#ff0000" stroke-width="2.5" stroke-opacity="0.6"/>
  <line x1="682.8" y1="88.0" x2="884.0" y2="289.2" stroke="#ff0000" stroke-width="2.5" stroke-opacity="0.6"/>
  <line x1="692.8" y1="88.0" x2="894.0" y2="289.2" stroke="#ff0000" stroke-width="2.5" stroke-opacity="0.6"/>
  <line x1="702.8" y1="88.0" x2="904.0" y2="289.2" stroke="#ff0000" stroke-width="2.5" stroke-opacity="0.6"/>
  <line x1="712.8" y1="88.0" x2="914.0" y2="289.2" stroke="#ff0000" stroke-width="2.5" stroke-opacity="0.6"/>
  <line x1="722.8" y1="88.0" x2="924.0" y2="289.2" stroke="#ff0000" stroke-width="2.5" stroke-opacity="0.6"/>
  <line x1="732.8" y1="88.0" x2="934.0" y2="289.2" stroke="#ff0000" stroke-width="2.5" stroke-opacity="0.6"/>
  <line x1="742.8" y1="88.0" x2="944.0" y2="289.2" stroke="#ff0000" stroke-width="2.5" stroke-opacity="0.6"/>
  <line x1="752.8" y1="88.0" x2="954.0" y2="289.2" stroke="#ff0000" stroke-width="2.5" stroke-opacity="0.6"/>
  <line x1="762.8" y1="88.0" x2="964.0" y2="289.2" stroke="#ff0000" stroke-width="2.5" stroke-opacity="0.6"/>
  <line x1="772.8" y1="88.0" x2="974.0" y2="289.2" stroke="#ff0000" stroke-width="2.5" stroke-opacity="0.6"/>
  <line x1="782.8" y1="88.0" x2="984.0" y2="289.2" stroke="#ff0000" stroke-width="2.5" stroke-opacity="0.6"/>
  <line x1="792.8" y1="88.0" x2="994.0" y2="289.2" stroke="#ff0000" stroke-width="2.5" stroke-opacity="0.6"/>
  <line x1="802.8" y1="88.0" x2="1004.0" y2="289.2" stroke="#ff0000" stroke-width="2.5" stroke-opacity="0.6"/>
  <line x1="812.8" y1="88.0" x2="1014.0" y2="289.2" stroke="#ff0000" stroke-width="2.5" stroke-opacity="0.6"/>
</g><polygon points="808.0,92.0 808.0,285.1 98.0,285.2"
      fill="none" fill-opacity="0"
      stroke="#ff0000" stroke-opacity="0.80" stroke-width="1.5"
      stroke-dasharray="6,3"
      clip-path="url(#cc)"/>

  <!-- Overlay legend (bottom-left) -->
  <circle cx="44.0" cy="552" r="4"
        fill="#4000ff" fill-opacity="0.85"/>
  <text x="57.0" y="552" dominant-baseline="middle"
        fill="#e4dbff" fill-opacity="0.88"
        stroke="#000000" stroke-width="2.5" stroke-opacity="0.55" paint-order="stroke"
        font-family="'Segoe UI',Arial,sans-serif" font-size="10" font-weight="600"
        letter-spacing="0.06em">Valid Targets</text>
  <circle cx="44.0" cy="566" r="4"
        fill="#ff0000" fill-opacity="0.85"/>
  <text x="57.0" y="566" dominant-baseline="middle"
        fill="#ffffff" fill-opacity="0.88"
        stroke="#000000" stroke-width="2.5" stroke-opacity="0.55" paint-order="stroke"
        font-family="'Segoe UI',Arial,sans-serif" font-size="10" font-weight="600"
        letter-spacing="0.06em">Ignored</text>

  <!-- Zone labels inside cone -->
  <text x="184.0" y="295.0" text-anchor="middle"
        fill="#34d399" fill-opacity="0.82"
        stroke="#000000" stroke-width="3" stroke-opacity="0.6" paint-order="stroke"
        font-family="'Segoe UI',Arial,sans-serif" font-size="11.5" font-weight="700"
        letter-spacing="0.06em">OPTIMAL</text>
  <text x="184.0" y="312.0" text-anchor="middle"
        fill="#34d399" fill-opacity="0.55"
        stroke="#000000" stroke-width="2.5" stroke-opacity="0.5" paint-order="stroke"
        font-family="'Segoe UI',Arial,sans-serif" font-size="10">10 dmg  ·  0–7.5m</text>
  <text x="568.0" y="295.0" text-anchor="middle"
        fill="#fbbf24" fill-opacity="0.82"
        stroke="#000000" stroke-width="3" stroke-opacity="0.6" paint-order="stroke"
        font-family="'Segoe UI',Arial,sans-serif" font-size="11.5" font-weight="700"
        letter-spacing="0.06em">FALLOFF</text>
  <text x="568.0" y="312.0" text-anchor="middle"
        fill="#fbbf24" fill-opacity="0.55"
        stroke="#000000" stroke-width="2.5" stroke-opacity="0.5" paint-order="stroke"
        font-family="'Segoe UI',Arial,sans-serif" font-size="10">10→0 dmg (linear)  ·  7.5–20m</text>

  <!-- Title block -->
  <text x="430.0" y="32" text-anchor="middle"
        fill="#e8ecf4" fill-opacity="0.95"
        stroke="#000000" stroke-width="3" stroke-opacity="0.5" paint-order="stroke"
        font-family="'Segoe UI',Arial,sans-serif" font-size="19" font-weight="700"
        letter-spacing="0.05em">Flame Torrent Anti-Armor Damage</text>
  <text x="430.0" y="52" text-anchor="middle"
        fill="#4a5568"
        stroke="#000000" stroke-width="2" stroke-opacity="0.4" paint-order="stroke"
        font-family="'Segoe UI',Arial,sans-serif" font-size="12">
    Range Diagram &nbsp;·&nbsp; v1.3.0 &nbsp;·&nbsp; Spread 90°
  </text>

  <!-- Separator under title -->
  <line x1="215.0" y1="62" x2="645.0" y2="62"
        stroke="#2c3040" stroke-width="1"/>

</svg>